<svg xmlns="http://www.w3.org/2000/svg" width="219.664" height="141.81" viewBox="0 0 219.664 141.81"><g transform="translate(-146 -296.21)"><path d="M190.193,323.808a35.327,35.327,0,0,1,28.993-23.363c13.823-1.57,28.374,5.44,34.622,18.578,4.667,9.812,4.754,23.15-3.1,33.215-8,10.252-19.933,11.606-22.237,11.823H146" transform="translate(0)" fill="none" stroke="#068fab" stroke-miterlimit="10" stroke-width="8"/><path d="M285.082,409.373a20.953,20.953,0,0,1,17.2-13.857c8.2-.931,16.828,3.226,20.535,11.018,2.768,5.82,2.819,13.731-1.837,19.7a19.368,19.368,0,0,1-13.189,7.012H146" transform="translate(0 -53.705)" fill="none" stroke="#068fab" stroke-miterlimit="10" stroke-width="8"/><path d="M247.363,544.291a20.953,20.953,0,0,0,17.2,13.857c8.2.931,16.829-3.226,20.535-11.019,2.768-5.82,2.819-13.73-1.836-19.7a19.369,19.369,0,0,0-13.189-7.012H146" transform="translate(0 -124.269)" fill="none" stroke="#068fab" stroke-miterlimit="10" stroke-width="8"/><path d="M558.715,396.442c.314-.486,7.634-12.26,1.468-24.783a25.991,25.991,0,0,0-25.951-14.192" transform="translate(-219.106 -32.219)" fill="none" stroke="#068fab" stroke-miterlimit="10" stroke-width="8"/><path d="M576.552,377.3c.46-.774,11.161-19.505.847-38.619a40.441,40.441,0,0,0-41.172-20.563" transform="translate(-220.232 -9.859)" fill="none" stroke="#068fab" stroke-miterlimit="10" stroke-width="8"/></g></svg>